<svg aria-roledescription="er" viewBox="0 0 399.1497802734375 496" style="max-width: 399.15px; background-color: white;" xmlns:xlink="http://www.w3.org/1999/xlink" xmlns="http://www.w3.org/2000/svg" width="100%" id="mermaid-0"><style>#mermaid-0{font-family:"trebuchet ms",verdana,arial,sans-serif;font-size:16px;fill:#000000;}#mermaid-0 .error-icon{fill:#552222;}#mermaid-0 .error-text{fill:#552222;stroke:#552222;}#mermaid-0 .edge-thickness-normal{stroke-width:2px;}#mermaid-0 .edge-thickness-thick{stroke-width:3.5px;}#mermaid-0 .edge-pattern-solid{stroke-dasharray:0;}#mermaid-0 .edge-pattern-dashed{stroke-dasharray:3;}#mermaid-0 .edge-pattern-dotted{stroke-dasharray:2;}#mermaid-0 .marker{fill:#000000;stroke:#000000;}#mermaid-0 .marker.cross{stroke:#000000;}#mermaid-0 svg{font-family:"trebuchet ms",verdana,arial,sans-serif;font-size:16px;}#mermaid-0 .entityBox{fill:#cde498;stroke:#13540c;}#mermaid-0 .attributeBoxOdd{fill:#ffffff;stroke:#13540c;}#mermaid-0 .attributeBoxEven{fill:#f2f2f2;stroke:#13540c;}#mermaid-0 .relationshipLabelBox{fill:hsl(78.1578947368, 58.4615384615%, 84.5098039216%);opacity:0.7;background-color:hsl(78.1578947368, 58.4615384615%, 84.5098039216%);}#mermaid-0 .relationshipLabelBox rect{opacity:0.5;}#mermaid-0 .relationshipLine{stroke:#000000;}#mermaid-0 .entityTitleText{text-anchor:middle;font-size:18px;fill:#000000;}#mermaid-0 :root{--mermaid-font-family:"trebuchet ms",verdana,arial,sans-serif;}</style><g/><defs><marker orient="auto" markerHeight="18" markerWidth="18" refY="9" refX="0" id="ONLY_ONE_START"><path d="M9,0 L9,18 M15,0 L15,18" fill="none" stroke="gray"/></marker></defs><defs><marker orient="auto" markerHeight="18" markerWidth="18" refY="9" refX="18" id="ONLY_ONE_END"><path d="M3,0 L3,18 M9,0 L9,18" fill="none" stroke="gray"/></marker></defs><defs><marker orient="auto" markerHeight="18" markerWidth="30" refY="9" refX="0" id="ZERO_OR_ONE_START"><circle r="6" cy="9" cx="21" fill="white" stroke="gray"/><path d="M9,0 L9,18" fill="none" stroke="gray"/></marker></defs><defs><marker orient="auto" markerHeight="18" markerWidth="30" refY="9" refX="30" id="ZERO_OR_ONE_END"><circle r="6" cy="9" cx="9" fill="white" stroke="gray"/><path d="M21,0 L21,18" fill="none" stroke="gray"/></marker></defs><defs><marker orient="auto" markerHeight="36" markerWidth="45" refY="18" refX="18" id="ONE_OR_MORE_START"><path d="M0,18 Q 18,0 36,18 Q 18,36 0,18 M42,9 L42,27" fill="none" stroke="gray"/></marker></defs><defs><marker orient="auto" markerHeight="36" markerWidth="45" refY="18" refX="27" id="ONE_OR_MORE_END"><path d="M3,9 L3,27 M9,18 Q27,0 45,18 Q27,36 9,18" fill="none" stroke="gray"/></marker></defs><defs><marker orient="auto" markerHeight="36" markerWidth="57" refY="18" refX="18" id="ZERO_OR_MORE_START"><circle r="6" cy="18" cx="48" fill="white" stroke="gray"/><path d="M0,18 Q18,0 36,18 Q18,36 0,18" fill="none" stroke="gray"/></marker></defs><defs><marker orient="auto" markerHeight="36" markerWidth="57" refY="18" refX="39" id="ZERO_OR_MORE_END"><circle r="6" cy="18" cx="9" fill="white" stroke="gray"/><path d="M21,18 Q39,0 57,18 Q39,36 21,18" fill="none" stroke="gray"/></marker></defs><path style="stroke: gray; fill: none;" marker-start="url(#ZERO_OR_MORE_START)" marker-end="url(#ONLY_ONE_END)" d="M111.4561996459961,198L111.4561996459961,206.33333333333334C111.4561996459961,214.66666666666666,111.4561996459961,231.33333333333334,111.4561996459961,248C111.4561996459961,264.6666666666667,111.4561996459961,281.3333333333333,111.4561996459961,289.6666666666667L111.4561996459961,298" class="er relationshipLine"/><g transform="translate(20,298 )" id="entity-user-54a423b5-23ad-4a96-89f6-94a74b3d7e48"><rect height="178" width="182.9123992919922" y="0" x="0" class="er entityBox"/><text style="dominant-baseline: middle; text-anchor: middle; font-size: 12px;" transform="translate(91.4561996459961,12)" y="0" x="0" id="text-entity-user-54a423b5-23ad-4a96-89f6-94a74b3d7e48" class="er entityLabel">user</text><rect height="22" width="54.095550537109375" y="24" x="0" class="er attributeBoxOdd"/><text style="dominant-baseline: middle; font-size: 10.2px;" transform="translate(5,35)" y="0" x="0" id="text-entity-user-54a423b5-23ad-4a96-89f6-94a74b3d7e48-attr-1-type" class="er entityLabel">String</text><rect height="22" width="58.9166259765625" y="24" x="54.095550537109375" class="er attributeBoxOdd"/><text style="dominant-baseline: middle; font-size: 10.2px;" transform="translate(59.095550537109375,35)" y="0" x="0" id="text-entity-user-54a423b5-23ad-4a96-89f6-94a74b3d7e48-attr-1-name" class="er entityLabel">id</text><rect height="22" width="22.68768310546875" y="24" x="113.01217651367188" class="er attributeBoxOdd"/><text style="dominant-baseline: middle; font-size: 10.2px;" transform="translate(118.01217651367188,35)" y="0" x="0" id="text-entity-user-54a423b5-23ad-4a96-89f6-94a74b3d7e48-attr-1-key" class="er entityLabel">PK</text><rect height="22" width="47.21253967285156" y="24" x="135.69985961914062" class="er attributeBoxOdd"/><text style="dominant-baseline: middle; font-size: 10.2px;" transform="translate(140.69985961914062,35)" y="0" x="0" id="text-entity-user-54a423b5-23ad-4a96-89f6-94a74b3d7e48-attr-1-comment" class="er entityLabel"/><rect height="22" width="54.095550537109375" y="46" x="0" class="er attributeBoxEven"/><text style="dominant-baseline: middle; font-size: 10.2px;" transform="translate(5,57)" y="0" x="0" id="text-entity-user-54a423b5-23ad-4a96-89f6-94a74b3d7e48-attr-2-type" class="er entityLabel">DateTime</text><rect height="22" width="58.9166259765625" y="46" x="54.095550537109375" class="er attributeBoxEven"/><text style="dominant-baseline: middle; font-size: 10.2px;" transform="translate(59.095550537109375,57)" y="0" x="0" id="text-entity-user-54a423b5-23ad-4a96-89f6-94a74b3d7e48-attr-2-name" class="er entityLabel">createdAt</text><rect height="22" width="22.68768310546875" y="46" x="113.01217651367188" class="er attributeBoxEven"/><text style="dominant-baseline: middle; font-size: 10.2px;" transform="translate(118.01217651367188,57)" y="0" x="0" id="text-entity-user-54a423b5-23ad-4a96-89f6-94a74b3d7e48-attr-2-key" class="er entityLabel"/><rect height="22" width="47.21253967285156" y="46" x="135.69985961914062" class="er attributeBoxEven"/><text style="dominant-baseline: middle; font-size: 10.2px;" transform="translate(140.69985961914062,57)" y="0" x="0" id="text-entity-user-54a423b5-23ad-4a96-89f6-94a74b3d7e48-attr-2-comment" class="er entityLabel"/><rect height="22" width="54.095550537109375" y="68" x="0" class="er attributeBoxOdd"/><text style="dominant-baseline: middle; font-size: 10.2px;" transform="translate(5,79)" y="0" x="0" id="text-entity-user-54a423b5-23ad-4a96-89f6-94a74b3d7e48-attr-3-type" class="er entityLabel">String</text><rect height="22" width="58.9166259765625" y="68" x="54.095550537109375" class="er attributeBoxOdd"/><text style="dominant-baseline: middle; font-size: 10.2px;" transform="translate(59.095550537109375,79)" y="0" x="0" id="text-entity-user-54a423b5-23ad-4a96-89f6-94a74b3d7e48-attr-3-name" class="er entityLabel">userName</text><rect height="22" width="22.68768310546875" y="68" x="113.01217651367188" class="er attributeBoxOdd"/><text style="dominant-baseline: middle; font-size: 10.2px;" transform="translate(118.01217651367188,79)" y="0" x="0" id="text-entity-user-54a423b5-23ad-4a96-89f6-94a74b3d7e48-attr-3-key" class="er entityLabel"/><rect height="22" width="47.21253967285156" y="68" x="135.69985961914062" class="er attributeBoxOdd"/><text style="dominant-baseline: middle; font-size: 10.2px;" transform="translate(140.69985961914062,79)" y="0" x="0" id="text-entity-user-54a423b5-23ad-4a96-89f6-94a74b3d7e48-attr-3-comment" class="er entityLabel"/><rect height="22" width="54.095550537109375" y="90" x="0" class="er attributeBoxEven"/><text style="dominant-baseline: middle; font-size: 10.2px;" transform="translate(5,101)" y="0" x="0" id="text-entity-user-54a423b5-23ad-4a96-89f6-94a74b3d7e48-attr-4-type" class="er entityLabel">String</text><rect height="22" width="58.9166259765625" y="90" x="54.095550537109375" class="er attributeBoxEven"/><text style="dominant-baseline: middle; font-size: 10.2px;" transform="translate(59.095550537109375,101)" y="0" x="0" id="text-entity-user-54a423b5-23ad-4a96-89f6-94a74b3d7e48-attr-4-name" class="er entityLabel">email</text><rect height="22" width="22.68768310546875" y="90" x="113.01217651367188" class="er attributeBoxEven"/><text style="dominant-baseline: middle; font-size: 10.2px;" transform="translate(118.01217651367188,101)" y="0" x="0" id="text-entity-user-54a423b5-23ad-4a96-89f6-94a74b3d7e48-attr-4-key" class="er entityLabel"/><rect height="22" width="47.21253967285156" y="90" x="135.69985961914062" class="er attributeBoxEven"/><text style="dominant-baseline: middle; font-size: 10.2px;" transform="translate(140.69985961914062,101)" y="0" x="0" id="text-entity-user-54a423b5-23ad-4a96-89f6-94a74b3d7e48-attr-4-comment" class="er entityLabel"/><rect height="22" width="54.095550537109375" y="112" x="0" class="er attributeBoxOdd"/><text style="dominant-baseline: middle; font-size: 10.2px;" transform="translate(5,123)" y="0" x="0" id="text-entity-user-54a423b5-23ad-4a96-89f6-94a74b3d7e48-attr-5-type" class="er entityLabel">String</text><rect height="22" width="58.9166259765625" y="112" x="54.095550537109375" class="er attributeBoxOdd"/><text style="dominant-baseline: middle; font-size: 10.2px;" transform="translate(59.095550537109375,123)" y="0" x="0" id="text-entity-user-54a423b5-23ad-4a96-89f6-94a74b3d7e48-attr-5-name" class="er entityLabel">name</text><rect height="22" width="22.68768310546875" y="112" x="113.01217651367188" class="er attributeBoxOdd"/><text style="dominant-baseline: middle; font-size: 10.2px;" transform="translate(118.01217651367188,123)" y="0" x="0" id="text-entity-user-54a423b5-23ad-4a96-89f6-94a74b3d7e48-attr-5-key" class="er entityLabel"/><rect height="22" width="47.21253967285156" y="112" x="135.69985961914062" class="er attributeBoxOdd"/><text style="dominant-baseline: middle; font-size: 10.2px;" transform="translate(140.69985961914062,123)" y="0" x="0" id="text-entity-user-54a423b5-23ad-4a96-89f6-94a74b3d7e48-attr-5-comment" class="er entityLabel">nullable</text><rect height="22" width="54.095550537109375" y="134" x="0" class="er attributeBoxEven"/><text style="dominant-baseline: middle; font-size: 10.2px;" transform="translate(5,145)" y="0" x="0" id="text-entity-user-54a423b5-23ad-4a96-89f6-94a74b3d7e48-attr-6-type" class="er entityLabel">String</text><rect height="22" width="58.9166259765625" y="134" x="54.095550537109375" class="er attributeBoxEven"/><text style="dominant-baseline: middle; font-size: 10.2px;" transform="translate(59.095550537109375,145)" y="0" x="0" id="text-entity-user-54a423b5-23ad-4a96-89f6-94a74b3d7e48-attr-6-name" class="er entityLabel">password</text><rect height="22" width="22.68768310546875" y="134" x="113.01217651367188" class="er attributeBoxEven"/><text style="dominant-baseline: middle; font-size: 10.2px;" transform="translate(118.01217651367188,145)" y="0" x="0" id="text-entity-user-54a423b5-23ad-4a96-89f6-94a74b3d7e48-attr-6-key" class="er entityLabel"/><rect height="22" width="47.21253967285156" y="134" x="135.69985961914062" class="er attributeBoxEven"/><text style="dominant-baseline: middle; font-size: 10.2px;" transform="translate(140.69985961914062,145)" y="0" x="0" id="text-entity-user-54a423b5-23ad-4a96-89f6-94a74b3d7e48-attr-6-comment" class="er entityLabel"/><rect height="22" width="54.095550537109375" y="156" x="0" class="er attributeBoxOdd"/><text style="dominant-baseline: middle; font-size: 10.2px;" transform="translate(5,167)" y="0" x="0" id="text-entity-user-54a423b5-23ad-4a96-89f6-94a74b3d7e48-attr-7-type" class="er entityLabel">String</text><rect height="22" width="58.9166259765625" y="156" x="54.095550537109375" class="er attributeBoxOdd"/><text style="dominant-baseline: middle; font-size: 10.2px;" transform="translate(59.095550537109375,167)" y="0" x="0" id="text-entity-user-54a423b5-23ad-4a96-89f6-94a74b3d7e48-attr-7-name" class="er entityLabel">loginToken</text><rect height="22" width="22.68768310546875" y="156" x="113.01217651367188" class="er attributeBoxOdd"/><text style="dominant-baseline: middle; font-size: 10.2px;" transform="translate(118.01217651367188,167)" y="0" x="0" id="text-entity-user-54a423b5-23ad-4a96-89f6-94a74b3d7e48-attr-7-key" class="er entityLabel"/><rect height="22" width="47.21253967285156" y="156" x="135.69985961914062" class="er attributeBoxOdd"/><text style="dominant-baseline: middle; font-size: 10.2px;" transform="translate(140.69985961914062,167)" y="0" x="0" id="text-entity-user-54a423b5-23ad-4a96-89f6-94a74b3d7e48-attr-7-comment" class="er entityLabel"/></g><g transform="translate(43.762611389160156,20 )" id="entity-posts-9a3484dd-8da8-4b34-893a-fd5ec16cc717"><rect height="178" width="135.38717651367188" y="0" x="0" class="er entityBox"/><text style="dominant-baseline: middle; text-anchor: middle; font-size: 12px;" transform="translate(67.69358825683594,12)" y="0" x="0" id="text-entity-posts-9a3484dd-8da8-4b34-893a-fd5ec16cc717" class="er entityLabel">posts</text><rect height="22" width="54.095550537109375" y="24" x="0" class="er attributeBoxOdd"/><text style="dominant-baseline: middle; font-size: 10.2px;" transform="translate(5,35)" y="0" x="0" id="text-entity-posts-9a3484dd-8da8-4b34-893a-fd5ec16cc717-attr-1-type" class="er entityLabel">String</text><rect height="22" width="58.60394287109375" y="24" x="54.095550537109375" class="er attributeBoxOdd"/><text style="dominant-baseline: middle; font-size: 10.2px;" transform="translate(59.095550537109375,35)" y="0" x="0" id="text-entity-posts-9a3484dd-8da8-4b34-893a-fd5ec16cc717-attr-1-name" class="er entityLabel">id</text><rect height="22" width="22.68768310546875" y="24" x="112.69949340820312" class="er attributeBoxOdd"/><text style="dominant-baseline: middle; font-size: 10.2px;" transform="translate(117.69949340820312,35)" y="0" x="0" id="text-entity-posts-9a3484dd-8da8-4b34-893a-fd5ec16cc717-attr-1-key" class="er entityLabel">PK</text><rect height="22" width="54.095550537109375" y="46" x="0" class="er attributeBoxEven"/><text style="dominant-baseline: middle; font-size: 10.2px;" transform="translate(5,57)" y="0" x="0" id="text-entity-posts-9a3484dd-8da8-4b34-893a-fd5ec16cc717-attr-2-type" class="er entityLabel">DateTime</text><rect height="22" width="58.60394287109375" y="46" x="54.095550537109375" class="er attributeBoxEven"/><text style="dominant-baseline: middle; font-size: 10.2px;" transform="translate(59.095550537109375,57)" y="0" x="0" id="text-entity-posts-9a3484dd-8da8-4b34-893a-fd5ec16cc717-attr-2-name" class="er entityLabel">createdAt</text><rect height="22" width="22.68768310546875" y="46" x="112.69949340820312" class="er attributeBoxEven"/><text style="dominant-baseline: middle; font-size: 10.2px;" transform="translate(117.69949340820312,57)" y="0" x="0" id="text-entity-posts-9a3484dd-8da8-4b34-893a-fd5ec16cc717-attr-2-key" class="er entityLabel"/><rect height="22" width="54.095550537109375" y="68" x="0" class="er attributeBoxOdd"/><text style="dominant-baseline: middle; font-size: 10.2px;" transform="translate(5,79)" y="0" x="0" id="text-entity-posts-9a3484dd-8da8-4b34-893a-fd5ec16cc717-attr-3-type" class="er entityLabel">DateTime</text><rect height="22" width="58.60394287109375" y="68" x="54.095550537109375" class="er attributeBoxOdd"/><text style="dominant-baseline: middle; font-size: 10.2px;" transform="translate(59.095550537109375,79)" y="0" x="0" id="text-entity-posts-9a3484dd-8da8-4b34-893a-fd5ec16cc717-attr-3-name" class="er entityLabel">updatedAt</text><rect height="22" width="22.68768310546875" y="68" x="112.69949340820312" class="er attributeBoxOdd"/><text style="dominant-baseline: middle; font-size: 10.2px;" transform="translate(117.69949340820312,79)" y="0" x="0" id="text-entity-posts-9a3484dd-8da8-4b34-893a-fd5ec16cc717-attr-3-key" class="er entityLabel"/><rect height="22" width="54.095550537109375" y="90" x="0" class="er attributeBoxEven"/><text style="dominant-baseline: middle; font-size: 10.2px;" transform="translate(5,101)" y="0" x="0" id="text-entity-posts-9a3484dd-8da8-4b34-893a-fd5ec16cc717-attr-4-type" class="er entityLabel">Boolean</text><rect height="22" width="58.60394287109375" y="90" x="54.095550537109375" class="er attributeBoxEven"/><text style="dominant-baseline: middle; font-size: 10.2px;" transform="translate(59.095550537109375,101)" y="0" x="0" id="text-entity-posts-9a3484dd-8da8-4b34-893a-fd5ec16cc717-attr-4-name" class="er entityLabel">published</text><rect height="22" width="22.68768310546875" y="90" x="112.69949340820312" class="er attributeBoxEven"/><text style="dominant-baseline: middle; font-size: 10.2px;" transform="translate(117.69949340820312,101)" y="0" x="0" id="text-entity-posts-9a3484dd-8da8-4b34-893a-fd5ec16cc717-attr-4-key" class="er entityLabel"/><rect height="22" width="54.095550537109375" y="112" x="0" class="er attributeBoxOdd"/><text style="dominant-baseline: middle; font-size: 10.2px;" transform="translate(5,123)" y="0" x="0" id="text-entity-posts-9a3484dd-8da8-4b34-893a-fd5ec16cc717-attr-5-type" class="er entityLabel">String</text><rect height="22" width="58.60394287109375" y="112" x="54.095550537109375" class="er attributeBoxOdd"/><text style="dominant-baseline: middle; font-size: 10.2px;" transform="translate(59.095550537109375,123)" y="0" x="0" id="text-entity-posts-9a3484dd-8da8-4b34-893a-fd5ec16cc717-attr-5-name" class="er entityLabel">title</text><rect height="22" width="22.68768310546875" y="112" x="112.69949340820312" class="er attributeBoxOdd"/><text style="dominant-baseline: middle; font-size: 10.2px;" transform="translate(117.69949340820312,123)" y="0" x="0" id="text-entity-posts-9a3484dd-8da8-4b34-893a-fd5ec16cc717-attr-5-key" class="er entityLabel"/><rect height="22" width="54.095550537109375" y="134" x="0" class="er attributeBoxEven"/><text style="dominant-baseline: middle; font-size: 10.2px;" transform="translate(5,145)" y="0" x="0" id="text-entity-posts-9a3484dd-8da8-4b34-893a-fd5ec16cc717-attr-6-type" class="er entityLabel">String</text><rect height="22" width="58.60394287109375" y="134" x="54.095550537109375" class="er attributeBoxEven"/><text style="dominant-baseline: middle; font-size: 10.2px;" transform="translate(59.095550537109375,145)" y="0" x="0" id="text-entity-posts-9a3484dd-8da8-4b34-893a-fd5ec16cc717-attr-6-name" class="er entityLabel">body</text><rect height="22" width="22.68768310546875" y="134" x="112.69949340820312" class="er attributeBoxEven"/><text style="dominant-baseline: middle; font-size: 10.2px;" transform="translate(117.69949340820312,145)" y="0" x="0" id="text-entity-posts-9a3484dd-8da8-4b34-893a-fd5ec16cc717-attr-6-key" class="er entityLabel"/><rect height="22" width="54.095550537109375" y="156" x="0" class="er attributeBoxOdd"/><text style="dominant-baseline: middle; font-size: 10.2px;" transform="translate(5,167)" y="0" x="0" id="text-entity-posts-9a3484dd-8da8-4b34-893a-fd5ec16cc717-attr-7-type" class="er entityLabel">Int</text><rect height="22" width="58.60394287109375" y="156" x="54.095550537109375" class="er attributeBoxOdd"/><text style="dominant-baseline: middle; font-size: 10.2px;" transform="translate(59.095550537109375,167)" y="0" x="0" id="text-entity-posts-9a3484dd-8da8-4b34-893a-fd5ec16cc717-attr-7-name" class="er entityLabel">stars</text><rect height="22" width="22.68768310546875" y="156" x="112.69949340820312" class="er attributeBoxOdd"/><text style="dominant-baseline: middle; font-size: 10.2px;" transform="translate(117.69949340820312,167)" y="0" x="0" id="text-entity-posts-9a3484dd-8da8-4b34-893a-fd5ec16cc717-attr-7-key" class="er entityLabel"/></g><g transform="translate(279.14978790283203,75 )" id="entity-tags-ca6d3809-841f-4798-9d93-db56973b6c0a"><rect height="68" width="100" y="0" x="0" class="er entityBox"/><text style="dominant-baseline: middle; text-anchor: middle; font-size: 12px;" transform="translate(50,12)" y="0" x="0" id="text-entity-tags-ca6d3809-841f-4798-9d93-db56973b6c0a" class="er entityLabel">tags</text><rect height="22" width="42.23377482096354" y="24" x="0" class="er attributeBoxOdd"/><text style="dominant-baseline: middle; font-size: 10.2px;" transform="translate(5,35)" y="0" x="0" id="text-entity-tags-ca6d3809-841f-4798-9d93-db56973b6c0a-attr-1-type" class="er entityLabel">String</text><rect height="22" width="30.240824381510418" y="24" x="42.23377482096354" class="er attributeBoxOdd"/><text style="dominant-baseline: middle; font-size: 10.2px;" transform="translate(47.23377482096354,35)" y="0" x="0" id="text-entity-tags-ca6d3809-841f-4798-9d93-db56973b6c0a-attr-1-name" class="er entityLabel">id</text><rect height="22" width="27.525400797526043" y="24" x="72.47459920247395" class="er attributeBoxOdd"/><text style="dominant-baseline: middle; font-size: 10.2px;" transform="translate(77.47459920247395,35)" y="0" x="0" id="text-entity-tags-ca6d3809-841f-4798-9d93-db56973b6c0a-attr-1-key" class="er entityLabel">PK</text><rect height="22" width="42.23377482096354" y="46" x="0" class="er attributeBoxEven"/><text style="dominant-baseline: middle; font-size: 10.2px;" transform="translate(5,57)" y="0" x="0" id="text-entity-tags-ca6d3809-841f-4798-9d93-db56973b6c0a-attr-2-type" class="er entityLabel">String</text><rect height="22" width="30.240824381510418" y="46" x="42.23377482096354" class="er attributeBoxEven"/><text style="dominant-baseline: middle; font-size: 10.2px;" transform="translate(47.23377482096354,57)" y="0" x="0" id="text-entity-tags-ca6d3809-841f-4798-9d93-db56973b6c0a-attr-2-name" class="er entityLabel">tag</text><rect height="22" width="27.525400797526043" y="46" x="72.47459920247395" class="er attributeBoxEven"/><text style="dominant-baseline: middle; font-size: 10.2px;" transform="translate(77.47459920247395,57)" y="0" x="0" id="text-entity-tags-ca6d3809-841f-4798-9d93-db56973b6c0a-attr-2-key" class="er entityLabel"/></g><rect height="14" width="36.615234375" y="241" x="93.1485824584961" class="er relationshipLabelBox"/><text style="text-anchor: middle; dominant-baseline: middle; font-size: 12px;" y="248" x="111.4561996459961" id="rel1" class="er relationshipLabel">author</text></svg>